<?xml version="1.0" encoding="UTF-8" standalone="no"?>
<!DOCTYPE svg PUBLIC "-//W3C//DTD SVG 1.1//EN" "http://www.w3.org/Graphics/SVG/1.1/DTD/svg11.dtd">
<svg xmlns="http://www.w3.org/2000/svg" xmlns:dc="http://purl.org/dc/elements/1.1/" xmlns:xl="http://www.w3.org/1999/xlink" version="1.1" viewBox="0 0 16 16" width="16" height="16">
  <defs/>
  <metadata> Produced by OmniGraffle 7.16 
    <dc:date>2020-06-14 11:26:43 +0000</dc:date>
  </metadata>
  <g id="michelangelo-pinned-svg" stroke="none" stroke-opacity="1" stroke-dasharray="none" fill="none" fill-opacity="1">
    <title>michelangelo-pinned-svg</title>
    <g id="michelangelo-pinned-svg: Layer 1">
      <title>Layer 1</title>
      <g id="Graphic_86">
        <path d="M 7.5 8 L 7 8 L 7 16 L 9 16 L 9 8 L 8.5 8 L 8.5 7 L 16 7 L 16 6 L 16 6 L 16 3 L 16 2 L 15 2 L 14 2 C 14 1.4477153 13.552285 1 13 1 L 1 1 L 1 1 C .44771525 1 0 1.4477153 0 2 L 0 3 C 0 3.5522848 .44771525 4 1 4 L 13 4 C 13.552285 4 14 3.5522848 14 3 L 15 3 L 15 6 L 8.5 6 L 8 6 L 7.5 6 Z" fill="black"/>
      </g>
    </g>
  </g>
</svg>
