<?xml version="1.0" encoding="UTF-8" standalone="no"?>
<!DOCTYPE svg PUBLIC "-//W3C//DTD SVG 1.1//EN" "http://www.w3.org/Graphics/SVG/1.1/DTD/svg11.dtd">
<svg xmlns="http://www.w3.org/2000/svg" xmlns:dc="http://purl.org/dc/elements/1.1/" xmlns:xl="http://www.w3.org/1999/xlink" version="1.1" viewBox="0 0 32 32" width="32" height="32">
  <defs>
    <clipPath id="inner_stroke_clip_path">
      <path d="M 15.138298 15.74468 L 15.329787 15.74468 C 15.417918 15.74468 15.489362 15.816125 15.489362 15.904255 L 15.489362 27.840425 C 15.489362 27.928556 15.417918 28 15.329787 28 L 15.138298 28 C 15.050167 28 14.978723 27.928556 14.978723 27.840425 L 14.978723 15.904255 C 14.978723 15.816125 15.050167 15.74468 15.138298 15.74468 Z"/>
    </clipPath>
    <clipPath id="inner_stroke_clip_path_2">
      <path d="M 15.648936 14.723404 L 15.840426 14.723404 C 15.928556 14.723404 16 14.794848 16 14.882979 L 16 15.585106 C 16 15.673237 15.928556 15.74468 15.840426 15.74468 L 15.648936 15.74468 C 15.560806 15.74468 15.489362 15.673237 15.489362 15.585106 L 15.489362 14.882979 C 15.489362 14.794848 15.560806 14.723404 15.648936 14.723404 Z"/>
    </clipPath>
  </defs>
  <metadata> Produced by OmniGraffle 7.16 
    <dc:date>2020-06-14 11:26:43 +0000</dc:date>
  </metadata>
  <g id="michelangelo-favicon" stroke="none" stroke-opacity="1" stroke-dasharray="none" fill="none" fill-opacity="1">
    <title>michelangelo-favicon</title>
    <g id="michelangelo-favicon: Layer 1">
      <title>Layer 1</title>
      <g id="Group_76">
        <g id="Graphic_84">
          <path d="M 30.80851 6.87234 L 30.80851 6.2340425 L 30.170213 6.2340425 L 29.30851 6.2340425 L 29.30851 6.87234 L 30.170213 6.87234 L 30.170213 11.340425 L 16.510638 11.340425 L 15.87234 11.340425 L 15.87234 11.978723 L 15.87234 14.851064 L 16.510638 14.851064 L 16.510638 11.978723 L 30.170213 11.978723 L 30.80851 11.978723 L 30.80851 11.340425 Z" fill="white"/>
          <path d="M 30.80851 6.87234 L 30.80851 6.2340425 L 30.170213 6.2340425 L 29.30851 6.2340425 L 29.30851 6.87234 L 30.170213 6.87234 L 30.170213 11.340425 L 16.510638 11.340425 L 15.87234 11.340425 L 15.87234 11.978723 L 15.87234 14.851064 L 16.510638 14.851064 L 16.510638 11.978723 L 30.170213 11.978723 L 30.80851 11.978723 L 30.80851 11.340425 Z" stroke="#009fe3" stroke-linecap="round" stroke-linejoin="miter" stroke-width=".31914893"/>
        </g>
        <g id="Graphic_83">
          <rect x="28.765957" y="5.0212766" width=".5106383" height="3.0638298" fill="white"/>
          <rect x="28.765957" y="5.0212766" width=".5106383" height="3.0638298" stroke="#009fe3" stroke-linecap="round" stroke-linejoin="miter" stroke-width=".31914893"/>
        </g>
        <g id="Graphic_82">
          <rect x="1.1914896" y="5.0212765" width=".5106383" height="3.0638298" fill="white"/>
          <rect x="1.1914896" y="5.0212765" width=".5106383" height="3.0638298" stroke="#009fe3" stroke-linecap="round" stroke-linejoin="miter" stroke-width=".31914893"/>
        </g>
        <g id="Graphic_81">
          <rect x="15.170213" y="14.723404" width="2.0425532" height="1.0212766" fill="white"/>
          <rect x="15.170213" y="14.723404" width="2.0425532" height="1.0212766" stroke="#009fe3" stroke-linecap="round" stroke-linejoin="miter" stroke-width=".31914893"/>
        </g>
        <g id="Graphic_80">
          <path d="M 2.101064 4 L 28.36702 4 C 28.587347 4 28.765957 4.17861 28.765957 4.398936 L 28.765957 8.707447 C 28.765957 8.927773 28.587347 9.106383 28.36702 9.106383 L 2.101064 9.106383 C 1.8807377 9.106383 1.702128 8.927773 1.702128 8.707447 L 1.702128 4.398936 C 1.702128 4.17861 1.8807377 4 2.101064 4 Z" fill="white"/>
          <path d="M 2.101064 4 L 28.36702 4 C 28.587347 4 28.765957 4.17861 28.765957 4.398936 L 28.765957 8.707447 C 28.765957 8.927773 28.587347 9.106383 28.36702 9.106383 L 2.101064 9.106383 C 1.8807377 9.106383 1.702128 8.927773 1.702128 8.707447 L 1.702128 4.398936 C 1.702128 4.17861 1.8807377 4 2.101064 4 Z" stroke="#009fe3" stroke-linecap="round" stroke-linejoin="miter" stroke-width=".31914893"/>
        </g>
        <g id="Graphic_79">
          <rect x="14.659574" y="15.74468" width="3.0638298" height="12.255319" fill="white"/>
          <rect x="14.659574" y="15.74468" width="3.0638298" height="12.255319" stroke="#009fe3" stroke-linecap="round" stroke-linejoin="miter" stroke-width=".31914893"/>
        </g>
        <g id="Graphic_78">
          <path d="M 15.138298 15.74468 L 15.329787 15.74468 C 15.417918 15.74468 15.489362 15.816125 15.489362 15.904255 L 15.489362 27.840425 C 15.489362 27.928556 15.417918 28 15.329787 28 L 15.138298 28 C 15.050167 28 14.978723 27.928556 14.978723 27.840425 L 14.978723 15.904255 C 14.978723 15.816125 15.050167 15.74468 15.138298 15.74468 Z" fill="white"/>
          <path d="M 15.138298 15.74468 L 15.329787 15.74468 C 15.417918 15.74468 15.489362 15.816125 15.489362 15.904255 L 15.489362 27.840425 C 15.489362 27.928556 15.417918 28 15.329787 28 L 15.138298 28 C 15.050167 28 14.978723 27.928556 14.978723 27.840425 L 14.978723 15.904255 C 14.978723 15.816125 15.050167 15.74468 15.138298 15.74468 Z" stroke="#009fe3" stroke-linecap="round" stroke-linejoin="miter" stroke-width=".31914893" clip-path="url(#inner_stroke_clip_path)"/>
        </g>
        <g id="Graphic_77">
          <path d="M 15.648936 14.723404 L 15.840426 14.723404 C 15.928556 14.723404 16 14.794848 16 14.882979 L 16 15.585106 C 16 15.673237 15.928556 15.74468 15.840426 15.74468 L 15.648936 15.74468 C 15.560806 15.74468 15.489362 15.673237 15.489362 15.585106 L 15.489362 14.882979 C 15.489362 14.794848 15.560806 14.723404 15.648936 14.723404 Z" fill="white"/>
          <path d="M 15.648936 14.723404 L 15.840426 14.723404 C 15.928556 14.723404 16 14.794848 16 14.882979 L 16 15.585106 C 16 15.673237 15.928556 15.74468 15.840426 15.74468 L 15.648936 15.74468 C 15.560806 15.74468 15.489362 15.673237 15.489362 15.585106 L 15.489362 14.882979 C 15.489362 14.794848 15.560806 14.723404 15.648936 14.723404 Z" stroke="#009fe3" stroke-linecap="round" stroke-linejoin="miter" stroke-width=".31914893" clip-path="url(#inner_stroke_clip_path_2)"/>
        </g>
      </g>
    </g>
  </g>
</svg>
